HIERARCHY
ROOT Hips
{
  OFFSET 0 89.5177 0.535
  CHANNELS 6 Xposition Yposition Zposition Zrotation Xrotation Yrotation
  JOINT Spine
  {
    OFFSET 12.0259 -0.162855 1.69034e-005
    CHANNELS 3 Zrotation Xrotation Yrotation
    JOINT Spine1
    {
      OFFSET 15.3169 -0.0121922 0
      CHANNELS 3 Zrotation Xrotation Yrotation
      JOINT Spine2
      {
        OFFSET 15.3176 -0.0121908 0
        CHANNELS 3 Zrotation Xrotation Yrotation
        JOINT Neck
        {
          OFFSET 19.9142 1.56338 0
          CHANNELS 3 Zrotation Xrotation Yrotation
          JOINT Head
          {
            OFFSET 6.92651 0 0
            CHANNELS 3 Zrotation Xrotation Yrotation
            End Site
            {
              OFFSET 20.7666 0 0
            }
          }
          JOINT LeftShoulder
          {
            OFFSET -6.20654 0.708824 7.28219
            CHANNELS 3 Zrotation Xrotation Yrotation
            JOINT LeftArm
            {
              OFFSET 14.108 0 -1.52588e-005
              CHANNELS 3 Zrotation Xrotation Yrotation
              JOINT LeftForeArm
              {
                OFFSET 28.5802 0 0
                CHANNELS 3 Zrotation Xrotation Yrotation
                JOINT LeftHand
                {
                  OFFSET 27.092 0 0
                  CHANNELS 3 Zrotation Xrotation Yrotation
                  End Site
                  {
                    OFFSET 9.55928 -0.186424 0.145352
                  }
                }
              }
            }
          }
          JOINT RightShoulder
          {
            OFFSET -6.20654 0.708866 -7.28218
            CHANNELS 3 Zrotation Xrotation Yrotation
            JOINT RightArm
            {
              OFFSET 14.108 0 1.52588e-005
              CHANNELS 3 Zrotation Xrotation Yrotation
              JOINT RightForeArm
              {
                OFFSET 28.5802 0 0
                CHANNELS 3 Zrotation Xrotation Yrotation
                JOINT RightHand
                {
                  OFFSET 27.092 0 0
                  CHANNELS 3 Zrotation Xrotation Yrotation
                  End Site
                  {
                    OFFSET 9.55929 -0.186417 -0.145354
                  }
                }
              }
            }
          }
        }
      }
    }
  }
  JOINT LeftUpLeg
  {
    OFFSET 0.005 -0.535 8.837
    CHANNELS 3 Zrotation Xrotation Yrotation
    JOINT LeftLeg
    {
      OFFSET 39.9035 0 0
      CHANNELS 3 Zrotation Xrotation Yrotation
      JOINT LeftFoot
      {
        OFFSET 39.6689 0 0
        CHANNELS 3 Zrotation Xrotation Yrotation
        JOINT LeftToe
        {
          OFFSET 10.1624 13.6296 0
          CHANNELS 3 Zrotation Xrotation Yrotation
          End Site
          {
            OFFSET 8.38147 0 0
          }
        }
      }
    }
  }
  JOINT RightUpLeg
  {
    OFFSET 0.005 -0.535 -8.837
    CHANNELS 3 Zrotation Xrotation Yrotation
    JOINT RightLeg
    {
      OFFSET 39.9035 0 0
      CHANNELS 3 Zrotation Xrotation Yrotation
      JOINT RightFoot
      {
        OFFSET 39.6689 0 0
        CHANNELS 3 Zrotation Xrotation Yrotation
        JOINT RightToe
        {
          OFFSET 10.1624 13.6296 0
          CHANNELS 3 Zrotation Xrotation Yrotation
          End Site
          {
            OFFSET 8.38147 0 0
          }
        }
      }
    }
  }
}
MOTION
Frames:	11
Frame Time:	0.0333333
432.876 88.5732 36.8947 133.803 -85.6612 44.808 0.0919684 -0.681211 0.273839 0.187214 -1.3615 0.548998 0.187213 -1.3615 0.548989 -8.30748e-012 -9.0191e-006 -5.27751e-005 -13.5077 4.06653 -0.517217 -179.235 -9.29594 -85.2744 97.1492 -72.8326 88.3824 -4.09283 1.13059e-015 3.18055e-015 -40.3613 -23.6413 -37.3071 179.994 0.676403 90.5131 59.9462 54.5553 -49.4543 -19.6697 -6.36111e-015 1.59028e-015 -36.0209 34.4223 39.6938 -5.67116 6.23982 -178.376 -17.3036 0 -7.95139e-016 17.499 12.0006 -6.28853 90 -1.37907e-015 -7.95139e-016 6.48361 -12.2156 -178.566 1.88993e-006 -1.59028e-015 -3.97569e-016 9.47203 -3.43049 -0.478305 90 2.27491e-021 7.95139e-016 
432.835 88.5782 36.922 132.563 -85.6106 43.5789 0.0941642 -0.673275 0.282144 0.191665 -1.34561 0.565621 0.191665 -1.34561 0.565612 -8.30708e-012 -9.0191e-006 -5.27751e-005 -13.4617 4.05789 -0.567906 -179.237 -9.30333 -85.2918 97.3814 -72.7905 88.6819 -4.08695 1.2424e-016 -0 -40.3067 -23.4996 -37.1089 179.994 0.684273 90.4865 59.7518 54.5441 -49.3857 -19.6639 6.36111e-015 -1.59028e-015 -35.9467 34.4046 39.6062 -5.65517 6.10845 -178.428 -17.2923 -6.36111e-015 7.95139e-016 17.4605 11.9689 -6.25469 90 4.34841e-016 -7.95139e-016 6.50435 -12.3013 -178.595 4.11151e-007 3.18056e-015 -3.97569e-016 9.46173 -3.41808 -0.45167 90 2.65406e-021 2.38542e-015 
432.798 88.5786 36.9513 131.436 -85.5454 42.4599 0.0991221 -0.665653 0.293007 0.193546 -1.33034 0.587346 0.193546 -1.33034 0.587337 -8.30828e-012 -9.0191e-006 -5.27751e-005 -13.4168 4.12136 -0.59457 -179.237 -9.26454 -85.2689 97.6326 -72.8243 88.9573 -4.0328 2.23633e-015 -0 -40.2699 -23.4963 -37.0483 179.994 0.681785 90.485 59.6897 54.5262 -49.4162 -19.6782 0 -1.59028e-015 -36.0972 34.3156 39.666 -5.70578 6.06029 -178.464 -17.3723 1.59028e-015 -3.97569e-016 17.5034 12.011 -6.23261 90 -2.73329e-016 -0 6.51277 -12.3498 -178.619 6.82513e-007 0 -5.96354e-016 9.45228 -3.36102 -0.431804 90 -2.21804e-020 -0 
432.756 88.5784 36.983 130.107 -85.4716 41.1409 0.104399 -0.664032 0.299627 0.202927 -1.32706 0.600639 0.202927 -1.32706 0.60063 -8.30748e-012 -9.0191e-006 -5.27751e-005 -13.4582 4.13026 -0.567698 -179.238 -9.23914 -85.263 97.2128 -72.8112 88.5966 -4.08119 -1.2424e-015 3.18055e-015 -40.1809 -23.6437 -37.2005 179.994 0.680847 90.4856 59.5876 54.4452 -49.4225 -19.6865 -3.18055e-015 1.59028e-015 -36.0684 34.3879 39.7049 -5.77656 6.06949 -178.485 -17.519 0 3.97569e-016 17.6302 12.1409 -6.26546 90 1.73937e-016 -0 6.4375 -12.4161 -178.667 -0.183002 3.18056e-015 5.96354e-016 9.535 -3.30173 -0.408637 90 -2.18012e-020 -0 
432.719 88.579 37.0132 129.239 -85.3863 40.2711 0.10687 -0.657517 0.306293 0.217277 -1.31398 0.614042 0.217277 -1.31398 0.614032 -8.30748e-012 -9.0191e-006 -5.27751e-005 -13.5606 4.06634 -0.581099 -179.241 -9.20591 -85.2662 97.2108 -72.7953 88.6429 -4.02776 -1.2921e-015 -0 -40.2435 -23.5461 -37.0907 179.995 0.733804 90.3633 58.8605 54.1846 -48.8359 -19.7411 0 -0 -36.1076 34.6602 39.9303 -5.8295 5.94955 -178.524 -17.5623 1.59028e-015 7.95139e-016 17.6419 12.1254 -6.19991 90 -1.73937e-016 -3.97569e-016 6.08995 -12.4524 -178.753 -0.841867 1.59028e-015 5.96354e-016 9.85648 -3.23272 -0.393815 90 -2.72989e-020 1.59028e-015 
432.684 88.5783 37.0411 128.511 -85.3012 39.5343 0.106035 -0.652266 0.316872 0.215698 -1.30346 0.63518 0.215698 -1.30346 0.635171 -8.30669e-012 -9.0191e-006 -5.27751e-005 -13.6385 3.97904 -0.545397 -179.242 -9.20467 -85.2692 97.1352 -72.7588 88.6391 -4.05261 6.4605e-016 3.18055e-015 -40.1808 -23.641 -37.1627 179.995 0.721093 90.3908 59.1496 54.2807 -49.1703 -19.6615 6.36111e-015 -3.18055e-015 -36.0033 34.6452 39.8206 -5.93638 5.97179 -178.521 -17.7175 0 3.97569e-016 17.7899 12.2586 -6.22935 90 0 -0 5.8801 -12.5043 -178.802 -1.22132 0 -3.97569e-016 10.0373 -3.18052 -0.375701 90 -2.72989e-020 -7.95139e-016 
432.648 88.5786 37.0599 128.004 -85.2395 39.0141 0.106238 -0.646032 0.324113 0.22529 -1.29096 0.649705 0.22529 -1.29096 0.649696 -8.30748e-012 -9.0191e-006 -5.27751e-005 -13.6948 3.9967 -0.461403 -179.242 -9.1858 -85.2647 96.3803 -72.6994 87.9318 -4.10797 3.97569e-016 -0 -40.1538 -23.7492 -37.2178 179.995 0.689103 90.3882 59.3123 54.262 -49.3714 -19.6262 -6.36111e-015 -1.59028e-015 -35.9909 34.5267 39.7197 -5.97344 5.86022 -178.547 -17.7507 0 7.95139e-016 17.8252 12.2276 -6.14598 90 7.45443e-017 7.95139e-016 5.85625 -12.5815 -178.808 -1.24696 1.59028e-015 7.95139e-016 10.0425 -3.18492 -0.350425 90 2.12325e-020 1.59028e-015 
432.619 88.5776 37.0933 127.746 -85.15 38.7412 0.106868 -0.644484 0.33717 0.227256 -1.28242 0.675823 0.227255 -1.28242 0.675814 -8.30748e-012 -9.0191e-006 -5.27751e-005 -13.8271 3.95723 -0.446056 -179.236 -9.18109 -85.2199 96.685 -72.7226 88.258 -4.04417 1.73937e-016 -6.36111e-015 -40.1247 -23.7334 -37.1663 179.996 0.714597 90.3507 59.1975 54.2141 -49.3325 -19.6389 6.36111e-015 1.59028e-015 -36.0343 34.557 39.7678 -6.1089 5.89818 -178.544 -17.8941 4.77083e-015 3.97569e-016 17.9621 12.3322 -6.1439 90 2.48481e-017 -0 5.64265 -12.6323 -178.845 -1.56547 0 1.98785e-016 10.1872 -3.15527 -0.334125 90 -9.09964e-021 1.59028e-015 
432.596 88.5768 37.1274 127.734 -85.0589 38.712 0.107789 -0.64369 0.342719 0.225353 -1.284 0.686935 0.225352 -1.284 0.686925 -8.30669e-012 -9.0191e-006 -5.27751e-005 -14.0028 3.90494 -0.356938 -179.236 -9.19044 -85.2267 96.2751 -72.6448 87.8488 -4.07256 6.42944e-016 -0 -40.1518 -23.7034 -37.1562 179.996 0.689751 90.3107 59.2052 54.144 -49.4071 -19.6811 -6.36111e-015 1.59028e-015 -35.92 34.5976 39.715 -6.24037 5.86838 -178.54 -17.995 1.59028e-015 3.97569e-016 18.0596 12.3918 -6.11626 90 -5.2181e-016 7.95139e-016 5.42871 -12.6969 -178.872 -1.84483 0 1.98785e-016 10.3083 -3.1354 -0.319417 90 -3.63986e-020 -0 
432.579 88.5763 37.1607 127.97 -84.983 38.9341 0.109187 -0.642912 0.354635 0.223735 -1.28557 0.710739 0.223735 -1.28557 0.71073 -8.30589e-012 -9.0191e-006 -5.27751e-005 -14.0915 3.86042 -0.338705 -179.226 -9.21224 -85.1735 96.2485 -72.6217 87.8302 -4.09433 -1.2921e-015 6.36111e-015 -40.1313 -23.8044 -37.2649 179.996 0.694059 90.2976 59.1998 54.1042 -49.4704 -19.6673 0 -7.95139e-016 -35.9029 34.5659 39.6635 -6.35638 5.85454 -178.545 -18.0541 0 3.97569e-016 18.1013 12.4089 -6.0758 90 5.2181e-016 3.97569e-016 5.22652 -12.7365 -178.895 -2.08458 4.77083e-015 -0 10.4097 -3.12517 -0.311009 90 -1.21329e-020 -0 
432.564 88.5758 37.194 128.264 -84.9027 39.218 0.110953 -0.641409 0.360426 0.225962 -1.28164 0.722331 0.225962 -1.28164 0.722321 -8.30669e-012 -9.0191e-006 -5.27751e-005 -14.1931 3.82376 -0.281587 -179.223 -9.22726 -85.1671 96.2182 -72.5622 87.8077 -4.10615 1.06847e-015 6.36111e-015 -40.0458 -23.7948 -37.1893 179.997 0.719844 90.2616 59.225 54.0792 -49.5668 -19.6678 6.36111e-015 -2.38542e-015 -35.8767 34.5781 39.6371 -6.46694 5.79708 -178.553 -18.0869 1.59028e-015 3.97569e-016 18.0999 12.4108 -6.04269 90 -5.96354e-016 3.97569e-016 5.01629 -12.7811 -178.921 -2.325 0 -3.97569e-016 10.5115 -3.1351 -0.303952 90 6.06643e-021 -0 
